<svg xmlns="http://www.w3.org/2000/svg" width="60" height="62" viewBox="0 0 60 62">
    <g fill="none" fill-rule="evenodd" stroke="#CFAA6B" stroke-width="2">
        <path d="M51.87 29.696c0 12.246-9.928 22.174-22.174 22.174-12.247 0-22.174-9.928-22.174-22.174 0-12.247 9.927-22.174 22.174-22.174 12.246 0 22.174 9.927 22.174 22.174z"/>
        <path d="M58.391 29.696c0 15.847-12.848 28.695-28.695 28.695C13.848 58.391 1 45.543 1 29.696 1 13.848 13.848 1 29.696 1 45.543 1 58.39 13.848 58.39 29.696zM20.565 8.826v41.74M38.826 8.826v41.74M29.696 1v6.522M51.87 29.696h6.521M6.217 29.696H1M29.696 51.87v6.521M50.565 11.435l-3.913 3.913M8.826 11.435l3.913 3.913M11.435 50.565l3.913-3.913M47.957 50.565l-3.914-3.913"/>
        <path d="M33.609 40.13a3.913 3.913 0 1 1-7.826 0 3.913 3.913 0 0 1 7.826 0zM15.348 54.478L10.13 61H2.304l5.218-13.043M44.043 54.478L49.261 61h7.826L51.87 47.957"/>
    </g>
</svg>
