<?xml version="1.0" encoding="UTF-8"?>
<svg width="160px" height="160px" viewBox="0 0 160 160" version="1.1" xmlns="http://www.w3.org/2000/svg" xmlns:xlink="http://www.w3.org/1999/xlink">
    <!-- Generator: sketchtool 46.1 (44463) - http://www.bohemiancoding.com/sketch -->
    <title>D209D4B0-0315-42F6-9F0F-F9A63FF9AF9C</title>
    <desc>Created with sketchtool.</desc>
    <defs></defs>
    <g id="page" stroke="none" stroke-width="1" fill="none" fill-rule="evenodd">
        <g id="main-2" transform="translate(-640.000000, -20.000000)">
            <g id="Group-17" transform="translate(640.000000, 20.000000)">
                <circle id="Oval" fill="#262626" cx="80" cy="80" r="80"></circle>
                <g id="Page-1" transform="translate(20.000000, 21.000000)" fill="#FFFFFF">
                    <path d="M91.4232414,12.1568276 C90.4053103,11.4575172 89.5197931,11.6106207 88.7728966,12.614069 C87.9453103,13.7292414 87.1466897,14.8982069 86.3646207,16.1230345 C85.9653103,16.7623448 85.8204828,17.3188966 85.9197931,17.7926897 C86.0191034,18.2644138 86.3232414,18.6761379 86.8322069,19.0257931 C87.3556552,19.3837241 87.8563448,19.5595862 88.3363448,19.5554483 C88.8142759,19.5492414 89.2384138,19.2782069 89.6066897,18.7423448 L88.6363448,18.0761379 C88.4853103,17.9747586 88.3922069,17.8278621 88.3591034,17.6437241 C88.323931,17.4575172 88.3591034,17.2878621 88.4604828,17.1388966 L90.0328966,14.8464828 C90.1363448,14.6954483 90.2811724,14.6023448 90.4673793,14.5671724 C90.6535862,14.532 90.8211724,14.5671724 90.9722069,14.6706207 L96.6494483,18.5644138 C96.8025517,18.6678621 96.8956552,18.8126897 96.9287586,18.9988966 C96.963931,19.1851034 96.9287586,19.3526897 96.8232414,19.5057931 L94.983931,22.1892414 C94.3404828,23.1244138 93.606,23.8216552 92.7722069,24.2830345 C91.9404828,24.7444138 91.0466897,25.0009655 90.0887586,25.0526897 C89.1328966,25.1044138 88.1397931,24.9554483 87.1073793,24.6016552 C86.0749655,24.2478621 85.0363448,23.709931 83.9894483,22.994069 C82.9425517,22.2782069 82.0818621,21.5106207 81.4032414,20.7037241 C80.7225517,19.8926897 80.2466897,19.0485517 79.9673793,18.1692414 C79.6901379,17.292 79.626,16.3837241 79.7749655,15.4423448 C79.9218621,14.5030345 80.3087586,13.5368276 80.9273793,12.5457931 C81.2873793,11.9623448 81.6928966,11.3395862 82.148069,10.6816552 C82.5991034,10.0195862 83.0418621,9.40303448 83.4763448,8.82993103 C84.1404828,7.95062069 84.8791034,7.28441379 85.6942759,6.83337931 C86.5115172,6.38027586 87.3784138,6.13406897 88.2949655,6.09475862 C89.2135862,6.05751724 90.1673793,6.21268966 91.1625517,6.56027586 C92.1577241,6.90993103 93.1653103,7.43337931 94.1832414,8.13062069 C95.2694483,8.87751724 96.1653103,9.67406897 96.8708276,10.5202759 C97.5742759,11.3685517 98.0853103,12.2085517 98.403931,13.0444138 C98.7184138,13.8802759 98.8570345,14.6913103 98.8115172,15.4795862 C98.766,16.2678621 98.5363448,16.9775172 98.1266897,17.6064828 C98.0418621,17.7285517 97.926,17.8051034 97.7728966,17.832 C97.6218621,17.8609655 97.4873793,17.832 97.3611724,17.7471724 L92.7991034,14.6188966 C92.523931,14.4306207 92.3770345,14.2175172 92.3563448,13.9816552 C92.3522069,13.8988966 92.3501379,13.7913103 92.3501379,13.6588966 C92.3501379,13.5264828 92.3211724,13.3754483 92.2653103,13.2057931 C92.2115172,13.0361379 92.1184138,12.8602759 91.988069,12.6823448 C91.8577241,12.5023448 91.6715172,12.3264828 91.4232414,12.1568276" id="Fill-1"></path>
                    <path d="M102.042828,32.0877931 C101.449034,32.4622759 101.091103,32.8698621 100.966966,33.3146897 C100.844897,33.7595172 100.919379,34.2188276 101.190414,34.6988276 C101.461448,35.1788276 101.819379,35.4788276 102.262138,35.6029655 C102.702828,35.7250345 103.23869,35.6277931 103.865586,35.3133103 C105.125586,34.6574483 106.346276,33.9684828 107.525586,33.2422759 C108.121448,32.8677931 108.47731,32.456069 108.595241,32.0050345 C108.715241,31.554 108.642828,31.0967586 108.380069,30.6312414 C108.11731,30.1677931 107.761448,29.8698621 107.314552,29.7395172 C106.865586,29.6091724 106.327655,29.7022759 105.702828,30.0188276 C104.473862,30.656069 103.253172,31.3471034 102.042828,32.0877931 M110.775931,38.8822759 C110.165586,39.2650345 109.528345,39.6457241 108.860069,40.0222759 C108.191793,40.4008966 107.550414,40.7443448 106.940069,41.0526207 C105.942828,41.5595172 104.972483,41.8367586 104.035241,41.8905517 C103.095931,41.9402069 102.200069,41.7912414 101.349724,41.4374483 C100.499379,41.0857241 99.7007586,40.5395172 98.955931,39.8008966 C98.2111034,39.0602069 97.5407586,38.1622759 96.9407586,37.1008966 C96.3324828,36.0250345 95.9062759,34.9843448 95.660069,33.9726207 C95.4138621,32.9608966 95.360069,32.0008966 95.4966207,31.0884828 C95.6311034,30.1781379 95.9642069,29.331931 96.4917931,28.554 C97.0193793,27.7781379 97.760069,27.0912414 98.7076552,26.4953793 C99.2869655,26.1312414 99.9117931,25.7588276 100.578,25.3822759 C101.246276,25.0036552 101.902138,24.651931 102.541448,24.3291724 C103.526276,23.8305517 104.492483,23.5533103 105.438,23.4974483 C106.383517,23.4415862 107.289724,23.5843448 108.154552,23.9298621 C109.019379,24.2733103 109.830414,24.8071034 110.585586,25.5312414 C111.33869,26.2553793 112.019379,27.1533103 112.627655,28.2291724 C113.227655,29.2884828 113.645586,30.3333103 113.881448,31.3595172 C114.11731,32.3857241 114.15869,33.3581379 114.007655,34.2788276 C113.856621,35.1974483 113.513172,36.0498621 112.97731,36.831931 C112.443517,37.611931 111.709034,38.2967586 110.775931,38.8822759" id="Fill-3"></path>
                    <path d="M108.190966,60.2451724 C108.207517,60.4272414 108.153724,60.5906897 108.035793,60.7375862 C107.913724,60.8824138 107.76269,60.9631034 107.578552,60.9796552 L103.815103,61.3231034 C103.633034,61.3417241 103.469586,61.29 103.32269,61.167931 C103.177862,61.047931 103.097172,60.8948276 103.080621,60.7127586 L101.930276,48.15 C101.913724,47.9658621 101.965448,47.8024138 102.087517,47.6575862 C102.205448,47.5127586 102.360621,47.432069 102.54269,47.4155172 L118.645448,45.9403448 C118.827517,45.9258621 118.993034,45.9775862 119.135793,46.0975862 C119.280621,46.2175862 119.36131,46.3686207 119.377862,46.5527586 L119.837172,51.5389655 C119.853724,51.7189655 119.799931,51.8844828 119.679931,52.0293103 C119.559931,52.1741379 119.406828,52.2548276 119.224759,52.2713793 L107.557862,53.3410345 L108.190966,60.2451724 Z" id="Fill-5"></path>
                    <path d="M109.799379,76.8442759 C110.473862,77.0366897 111.028345,76.9932414 111.45869,76.7077241 C111.891103,76.4222069 112.19731,76.0104828 112.379379,75.4746207 L112.863517,74.0511724 L105.51869,71.5518621 L104.995241,73.0953103 C104.81731,73.6146207 104.821448,74.1049655 105.009724,74.5642759 C105.193862,75.0277241 105.618,75.3856552 106.267655,75.6422069 C106.594552,75.7704828 106.904897,75.8884138 107.192483,75.996 C107.482138,76.1035862 107.767655,76.2028966 108.040759,76.298069 C108.318,76.3932414 108.59731,76.4842759 108.876621,76.5691034 C109.153862,76.653931 109.462138,76.7470345 109.799379,76.8442759 L109.799379,76.8442759 Z M116.962138,77.1649655 C116.583517,78.2697931 116.093172,79.2484138 115.486966,80.1008276 C114.880759,80.9511724 114.185586,81.636 113.401448,82.1532414 C112.615241,82.6704828 111.746276,82.9973793 110.794552,83.1318621 C109.840759,83.2642759 108.826966,83.1753103 107.753172,82.8628966 C107.415931,82.7656552 107.099379,82.6663448 106.807655,82.5691034 C106.513862,82.4677241 106.230414,82.3725517 105.955241,82.2773793 C105.678,82.1842759 105.396621,82.0891034 105.111103,81.9918621 C104.829724,81.8946207 104.531793,81.7849655 104.221448,81.6628966 C103.116621,81.2325517 102.21869,80.6801379 101.531793,80.0077241 C100.844897,79.3332414 100.350414,78.5656552 100.042138,77.7028966 C99.735931,76.8401379 99.6117931,75.8987586 99.6697241,74.8787586 C99.7235172,73.8566897 99.9448966,72.7766897 100.333862,71.6387586 L102.692483,64.6953103 C102.754552,64.5235862 102.866276,64.3932414 103.035931,64.3104828 C103.207655,64.2277241 103.37731,64.2153103 103.551103,64.2753103 L118.861448,69.4828966 C119.033172,69.5408276 119.163517,69.6546207 119.246276,69.8242759 C119.329034,69.993931 119.341448,70.1656552 119.283517,70.3394483 L116.962138,77.1649655 Z" id="Fill-7"></path>
                    <path d="M89.8551724,95.2932414 C89.7289655,95.4277241 89.5717241,95.496 89.3813793,95.5001379 C89.1951724,95.5042759 89.0358621,95.4442759 88.9013793,95.318069 L86.3441379,92.8849655 C86.2096552,92.7587586 86.1413793,92.6015172 86.1372414,92.4111724 C86.1310345,92.2228966 86.1931034,92.0635862 86.3193103,91.9291034 L95.3089655,82.4822069 C95.4351724,82.3477241 95.5924138,82.2794483 95.7806897,82.2753103 C95.9689655,82.2711724 96.1303448,82.3311724 96.2648276,82.4573793 L107.97931,93.6028966 C108.111724,93.7291034 108.182069,93.8863448 108.186207,94.0766897 C108.190345,94.2649655 108.130345,94.4263448 108.002069,94.5587586 L99.1510345,103.860828 C99.0268966,103.99531 98.8675862,104.063586 98.6793103,104.067724 C98.4910345,104.071862 98.3317241,104.011862 98.1951724,103.885655 L95.64,101.454621 C95.5055172,101.326345 95.4372414,101.169103 95.4331034,100.980828 C95.4268966,100.790483 95.4910345,100.631172 95.6151724,100.498759 L100.791724,95.0573793 L99.6475862,93.9691034 L94.8517241,99.0111724 C94.7255172,99.1435862 94.5682759,99.213931 94.382069,99.216 C94.1917241,99.2222069 94.0324138,99.1622069 93.8958621,99.036 L91.5393103,96.7932414 C91.4068966,96.6670345 91.3386207,96.5077241 91.3344828,96.3194483 C91.3282759,96.1311724 91.3882759,95.9697931 91.5165517,95.8373793 L96.3124138,90.7953103 L95.1682759,89.7091034 L89.8551724,95.2932414 Z" id="Fill-9"></path>
                    <path d="M75.6614483,116.199103 C75.4897241,116.267379 75.318,116.263241 75.1442069,116.190828 C74.9704138,116.114276 74.8483448,115.992207 74.7821379,115.822552 L68.8028276,100.797724 C68.7324828,100.628069 68.7366207,100.456345 68.8111034,100.282552 C68.8876552,100.108759 69.0097241,99.9887586 69.1793793,99.9204828 L72.855931,98.4577241 C73.1642069,98.3335862 73.4166207,98.3128966 73.6131724,98.3977241 C73.8076552,98.4825517 73.9442069,98.5549655 74.0207586,98.6128966 L80.3124828,102.978414 L77.9890345,97.1418621 C77.9207586,96.9701379 77.9248966,96.7984138 77.9993793,96.6266897 C78.0738621,96.4508276 78.198,96.3308276 78.3676552,96.2625517 L82.575931,94.5887586 C82.7476552,94.5184138 82.9193793,94.5225517 83.0931724,94.5991034 C83.2648966,94.6715172 83.3848966,94.7956552 83.4552414,94.9653103 L89.4345517,109.990138 C89.5007586,110.161862 89.4966207,110.333586 89.4221379,110.50531 C89.3476552,110.679103 89.2276552,110.799103 89.055931,110.867379 L85.3814483,112.330138 C85.0711034,112.452207 84.8186897,112.472897 84.6242069,112.388069 C84.4276552,112.30531 84.2931724,112.232897 84.2145517,112.174966 L77.720069,107.296345 L80.2483448,113.646 C80.3166207,113.817724 80.3124828,113.989448 80.238,114.161172 C80.1635172,114.334966 80.0414483,114.454966 79.8697241,114.523241 L75.6614483,116.199103 Z" id="Fill-11"></path>
                    <path d="M56.9577931,109.01731 C56.8957241,109.495241 56.7446897,109.935931 56.5046897,110.333172 C56.2688276,110.730414 55.9708966,111.065586 55.6171034,111.33869 C55.2633103,111.611793 54.8598621,111.810414 54.4150345,111.936621 C53.9681379,112.062828 53.5046897,112.095931 53.0246897,112.033862 C52.5446897,111.969724 52.106069,111.81869 51.7088276,111.580759 C51.3115862,111.342828 50.9764138,111.044897 50.7033103,110.691103 C50.4322759,110.333172 50.2315862,109.933862 50.1033103,109.486966 C49.9771034,109.042138 49.946069,108.57869 50.0102069,108.09869 C50.0722759,107.61869 50.2233103,107.180069 50.4612414,106.782828 C50.7012414,106.383517 50.9971034,106.048345 51.3529655,105.77731 C51.7088276,105.504207 52.1081379,105.305586 52.5550345,105.179379 C53.001931,105.051103 53.4653793,105.020069 53.9433103,105.084207 C54.4233103,105.146276 54.861931,105.29731 55.2591724,105.535241 C55.6564138,105.773172 55.9915862,106.071103 56.2646897,106.426966 C56.5377931,106.780759 56.7384828,107.182138 56.8646897,107.629034 C56.9908966,108.073862 57.021931,108.53731 56.9577931,109.01731" id="Fill-13"></path>
                    <path d="M33.5164138,96.2035862 L31.6543448,94.8091034 C31.3191724,94.5608276 31.0005517,94.4884138 30.7005517,94.598069 C30.4005517,94.7077241 30.1667586,94.8753103 29.9950345,95.1028966 C29.8150345,95.3428966 29.726069,95.6242759 29.724,95.9449655 C29.724,96.2677241 29.8750345,96.5449655 30.1853793,96.7746207 L32.0474483,98.1691034 L33.5164138,96.2035862 Z M26.366069,100.544276 C26.2046897,100.759448 26.1157241,101.013931 26.0908966,101.307724 C26.0681379,101.603586 26.2046897,101.862207 26.4964138,102.081517 L28.1805517,103.341517 L29.544,101.514621 L27.861931,100.25669 C27.5681379,100.037379 27.2846897,99.9773793 27.0115862,100.07669 C26.7426207,100.173931 26.5233103,100.331172 26.366069,100.544276 L26.366069,100.544276 Z M40.5653793,96.098069 C40.7143448,96.2077241 40.8012414,96.3566897 40.826069,96.5449655 C40.8550345,96.7291034 40.8115862,96.8966897 40.704,97.0435862 L31.0191724,109.99531 C30.9095172,110.142207 30.7626207,110.227034 30.5743448,110.256 C30.386069,110.282897 30.2205517,110.241517 30.0736552,110.129793 L23.4177931,105.156 C21.4915862,103.716 20.3474483,102.317379 19.9771034,100.956 C19.6067586,99.5987586 19.9522759,98.2084138 21.0115862,96.7932414 C21.2515862,96.4725517 21.5288276,96.213931 21.8391724,96.0215172 C22.1515862,95.8270345 22.464,95.6863448 22.7805517,95.5994483 C23.0971034,95.5125517 23.4033103,95.4608276 23.7074483,95.4463448 C24.0074483,95.4318621 24.2702069,95.4463448 24.4895172,95.4856552 C24.3177931,95.1877241 24.1833103,94.8566897 24.0943448,94.4884138 C24.0053793,94.1201379 23.9702069,93.7435862 23.9867586,93.3587586 C24.0012414,92.973931 24.0736552,92.5953103 24.1977931,92.2208276 C24.321931,91.8442759 24.5081379,91.4904828 24.7605517,91.1553103 C25.8881379,89.6449655 27.204,88.893931 28.7081379,88.9042759 C30.2102069,88.9146207 31.8777931,89.6035862 33.7088276,90.9711724 L40.5653793,96.098069 Z" id="Fill-15"></path>
                    <path d="M17.5282759,82.1035862 C18.1344828,81.7518621 18.5068966,81.3546207 18.6455172,80.916 C18.782069,80.4773793 18.7241379,80.013931 18.4717241,79.5256552 C18.2151724,79.0373793 17.8696552,78.7228966 17.4310345,78.5842759 C16.9903448,78.4456552 16.4524138,78.5263448 15.8172414,78.818069 C14.5365517,79.4304828 13.2910345,80.076 12.0868966,80.7628966 C11.4806897,81.1146207 11.1103448,81.513931 10.9758621,81.9608276 C10.8413793,82.4077241 10.8972414,82.8670345 11.1434483,83.3408276 C11.3917241,83.8146207 11.7351724,84.1228966 12.177931,84.2697931 C12.6206897,84.4166897 13.1606897,84.3422069 13.797931,84.0463448 C15.0517241,83.4504828 16.2931034,82.8028966 17.5282759,82.1035862 M9.03724138,75.0111724 C9.65586207,74.6511724 10.3096552,74.2932414 10.9882759,73.9394483 C11.6710345,73.5835862 12.3206897,73.2649655 12.9434483,72.9773793 C13.9572414,72.5035862 14.9358621,72.2594483 15.8751724,72.2387586 C16.8144828,72.2222069 17.7062069,72.4022069 18.5441379,72.7828966 C19.382069,73.1656552 20.16,73.7387586 20.877931,74.5022069 C21.5958621,75.2677241 22.2372414,76.1904828 22.8,77.2704828 C23.3689655,78.3670345 23.76,79.4222069 23.9710345,80.4401379 C24.1841379,81.4601379 24.2048276,82.4222069 24.0372414,83.3304828 C23.8675862,84.2346207 23.5075862,85.0684138 22.9531034,85.8256552 C22.3986207,86.5870345 21.6351724,87.2449655 20.6689655,87.8056552 C20.0751724,88.1511724 19.44,88.5028966 18.7593103,88.8566897 C18.0786207,89.2125517 17.4103448,89.5415172 16.7606897,89.8415172 C15.7613793,90.3049655 14.7868966,90.5511724 13.8393103,90.573931 C12.8917241,90.5946207 11.9917241,90.4208276 11.1372414,90.0463448 C10.2848276,89.673931 9.49241379,89.1111724 8.76413793,88.3622069 C8.03586207,87.6132414 7.3862069,86.6904828 6.81517241,85.593931 C6.25241379,84.516 5.87172414,83.4587586 5.67310345,82.4242759 C5.47241379,81.3877241 5.46206897,80.4153103 5.6462069,79.5008276 C5.82827586,78.5863448 6.19862069,77.7504828 6.76344828,76.9849655 C7.32413793,76.2235862 8.08344828,75.5656552 9.03724138,75.0111724" id="Fill-17"></path>
                    <path d="M0.000827586207,53.3896552 C-0.00744827586,53.2075862 0.0504827586,53.0441379 0.178758621,52.9055172 C0.304965517,52.7668966 0.462206897,52.6924138 0.646344828,52.6841379 L4.67048276,52.4937931 C4.85462069,52.4834483 5.01393103,52.5434483 5.15462069,52.6696552 C5.29531034,52.7958621 5.3697931,52.9531034 5.37806897,53.1351724 L5.57255172,57.2855172 L17.0263448,56.7434483 C17.2084138,56.7351724 17.3718621,56.7951724 17.5104828,56.9213793 C17.6491034,57.0496552 17.7235862,57.2048276 17.7318621,57.3868966 L17.9697931,62.3875862 C17.978069,62.5717241 17.918069,62.7331034 17.7918621,62.8717241 C17.6635862,63.0124138 17.5104828,63.0868966 17.3263448,63.0951724 L5.87462069,63.6372414 L6.07117241,67.7875862 C6.07944828,67.9717241 6.02151724,68.1310345 5.89324138,68.2717241 C5.76703448,68.4124138 5.61186207,68.4868966 5.42772414,68.4951724 L1.40358621,68.6855172 C1.21944828,68.6937931 1.06013793,68.6358621 0.91737931,68.5075862 C0.778758621,68.3813793 0.704275862,68.2241379 0.696,68.042069 L0.000827586207,53.3896552 Z" id="Fill-19"></path>
                    <path d="M6.89855172,29.4633103 C6.96268966,29.2915862 7.08268966,29.1695172 7.25648276,29.0908966 C7.4282069,29.0143448 7.59993103,29.0081379 7.77165517,29.0764138 L11.5330345,30.5205517 C11.7047586,30.5867586 11.8288966,30.7046897 11.9054483,30.8784828 C11.982,31.0502069 11.9882069,31.224 11.922,31.3936552 L10.4302759,35.2729655 L21.1330345,39.384 C21.3047586,39.4502069 21.4268276,39.5702069 21.5054483,39.741931 C21.582,39.9136552 21.5882069,40.0874483 21.519931,40.2571034 L19.7261379,44.9308966 C19.659931,45.1026207 19.539931,45.2267586 19.3682069,45.3033103 C19.1944138,45.3798621 19.0226897,45.384 18.8509655,45.3198621 L8.15027586,41.2067586 L6.66062069,45.086069 C6.59648276,45.2557241 6.47441379,45.381931 6.30268966,45.4584828 C6.13096552,45.5350345 5.95924138,45.5412414 5.78751724,45.4729655 L2.02613793,44.0288276 C1.85441379,43.9626207 1.73027586,43.8446897 1.65372414,43.6708966 C1.57717241,43.4991724 1.57096552,43.3274483 1.63717241,43.1557241 L6.89855172,29.4633103 Z" id="Fill-21"></path>
                    <path d="M30.8594483,19.8124138 C30.9877241,19.682069 31.1449655,19.6137931 31.3332414,19.6096552 C31.5215172,19.6075862 31.6828966,19.6696552 31.8153103,19.797931 L34.5256552,22.4317241 C34.658069,22.56 34.7242759,22.7172414 34.7263448,22.9075862 C34.7304828,23.0958621 34.6663448,23.2551724 34.538069,23.3875862 L25.7491034,32.4372414 C25.6208276,32.5696552 25.4635862,32.6358621 25.2753103,32.637931 C25.0849655,32.642069 24.9256552,32.58 24.7911724,32.4517241 L13.1946207,21.1841379 C13.0622069,21.0558621 12.996,20.8986207 12.9918621,20.7103448 C12.9897931,20.52 13.0518621,20.3606897 13.1801379,20.2282759 L16.6704828,16.6386207 C16.7966897,16.5062069 16.953931,16.44 17.1442759,16.4358621 C17.3325517,16.4317241 17.4918621,16.4937931 17.6263448,16.622069 L26.0263448,24.7862069 L30.8594483,19.8124138 Z" id="Fill-23"></path>
                    <path d="M48.0415862,11.6174483 C48.2112414,11.5471034 48.3829655,11.5471034 48.5567586,11.6174483 C48.7326207,11.6877931 48.8567586,11.8077931 48.9271034,11.9774483 L50.3029655,15.2277931 C50.3753793,15.3974483 50.3733103,15.5691724 50.3029655,15.7450345 C50.2326207,15.9188276 50.1126207,16.0429655 49.9429655,16.1133103 L37.9305517,21.1926207 C37.7608966,21.2650345 37.5912414,21.2650345 37.4153793,21.1946897 C37.2395172,21.1222759 37.1195172,21.0022759 37.0471034,20.8346897 L30.7491724,5.9402069 C30.6767586,5.77055172 30.6746897,5.60089655 30.7471034,5.42503448 C30.8174483,5.25124138 30.9374483,5.12710345 31.1050345,5.05468966 L42.9333103,0.054 C43.1029655,-0.0184137931 43.2746897,-0.0184137931 43.4484828,0.0519310345 C43.6243448,0.122275862 43.7484828,0.244344828 43.8188276,0.411931034 L45.1946897,3.66434483 C45.2650345,3.83193103 45.2671034,4.00365517 45.1946897,4.17951724 C45.1243448,4.35331034 45.0022759,4.47744828 44.8346897,4.54986207 L37.9181379,7.47331034 L38.5326207,8.92572414 L44.9422759,6.21744828 C45.111931,6.14503448 45.2836552,6.14296552 45.4574483,6.21537931 C45.6333103,6.2877931 45.7574483,6.40572414 45.8277931,6.57537931 L47.094,9.57124138 C47.1664138,9.74296552 47.1664138,9.91262069 47.096069,10.0884828 C47.0257241,10.2643448 46.9036552,10.3864138 46.736069,10.4588276 L40.3264138,13.1691724 L40.9408966,14.6215862 L48.0415862,11.6174483 Z" id="Fill-25"></path>
                    <path d="M61.4797241,6.51765517 C61.5273103,6.03558621 61.665931,5.59282759 61.8914483,5.18731034 C62.1190345,4.78386207 62.4045517,4.43834483 62.7521379,4.15489655 C63.0976552,3.87351724 63.4948966,3.66248276 63.9355862,3.5217931 C64.3762759,3.38110345 64.8397241,3.33765517 65.3197241,3.38524138 C65.8038621,3.43489655 66.2445517,3.57351724 66.650069,3.79903448 C67.0535172,4.02455172 67.3969655,4.31006897 67.6824828,4.65765517 C67.965931,5.00731034 68.1748966,5.40041379 68.3155862,5.84110345 C68.4562759,6.28593103 68.5017931,6.74524138 68.4521379,7.22731034 C68.4024828,7.70937931 68.2638621,8.15213793 68.0404138,8.55558621 C67.8148966,8.96110345 67.5273103,9.30662069 67.1797241,9.588 C66.8321379,9.87144828 66.4369655,10.0845517 65.9962759,10.2231724 C65.5535172,10.3617931 65.090069,10.4073103 64.610069,10.3576552 C64.128,10.310069 63.6831724,10.1735172 63.2797241,9.94593103 C62.8762759,9.72041379 62.5328276,9.43489655 62.2473103,9.08731034 C61.9638621,8.73972414 61.7548966,8.34248276 61.6142069,7.9017931 C61.4755862,7.45903448 61.430069,6.99765517 61.4797241,6.51765517" id="Fill-27"></path>
                </g>
            </g>
        </g>
    </g>
</svg>