<svg xmlns="http://www.w3.org/2000/svg" width="66" height="52" viewBox="0 0 66 52">
    <g fill="none" fill-rule="evenodd" stroke="#CFAA6B" stroke-width="2">
        <path d="M20.444 49.023c3.556.38 8.656.584 12.474.588 3.836.003 8.956-.194 12.526-.572M14.889 3.954C9.736 4.894 5.043 6.222 1 7.858v36.238c4.043 1.642 8.736 2.978 13.889 3.925M45.444 2.978c-3.555-.381-8.655-.585-12.473-.59-3.836-.002-8.956.195-12.527.573M51 48.046c5.153-.939 9.846-2.268 13.889-3.904V7.904C60.846 6.263 56.153 4.927 51 3.981M20.444 35.48c3.562.155 8.67.238 12.488.242 3.832.003 8.946-.075 12.512-.224"/>
        <path d="M14.889 16.896c-5.174.375-9.875.906-13.889 1.562v15.033c4.017.663 8.717 1.203 13.89 1.585M45.444 16.52c-3.56-.156-8.663-.239-12.487-.242-3.826-.004-8.943.074-12.513.224M51.001 35.102c5.152-.375 9.845-.905 13.888-1.56V18.508c-4.043-.662-8.736-1.201-13.889-1.583"/>
        <path d="M14.889 51h5.555V1H14.89zM45.444 51H51V1h-5.556z"/>
    </g>
</svg>
