<svg xmlns="http://www.w3.org/2000/svg" width="62" height="62" viewBox="0 0 62 62">
    <g fill="none" fill-rule="evenodd" stroke="#CFAA6B" stroke-linecap="round" stroke-width="2">
        <path d="M2 53h13M23.464 1v11.74s-.33 8.151 0 7.825V31L36.68 41.435v11.739L38 54.478V61H1v-6.522l1.321-1.304v-11.74L15.536 31V10.13M37 53h-7M60 48H47M41.625 56H61v-6.571l-1.292-1.315v-9.302a5.296 5.296 0 0 0-1.938-4.105l-10.978-8.936V19.2c0-5.081-4.048-9.2-9.042-9.2H30"/>
        <path d="M31 32l8-6.364v-5.09C39 19.14 37.805 18 36.333 18H23M16 36l-7 5M40 30l-4 4"/>
    </g>
</svg>
