<svg xmlns="http://www.w3.org/2000/svg" width="56" height="62" viewBox="0 0 56 62">
    <g fill="none" fill-rule="evenodd" stroke="#CFAA6B" stroke-width="2">
        <path d="M20.09 28.273v20.454M26.91 28.273v20.454M33.727 28.273v20.454M34.604 5.42c-1.36 1.21-1.812 2.307-2.152 3.738M7.818 10.545c1.537 0 2.955.51 4.095 1.367"/>
        <path d="M9.182 43.273v9.545l-1.848 3.697a2.728 2.728 0 0 0 .511 3.149L9.182 61h32.727l1.336-1.336c.83-.83 1.037-2.1.512-3.149l-1.848-3.697v-2.727h2.727c.786 0 1.539-.312 2.095-.867l4.655-4.656a9.546 9.546 0 0 0 2.796-6.75v-9.545a4.09 4.09 0 0 0-4.091-4.091h-8.182v-5.455c2.727-1.25 4.716-6.998 2.727-10.909-1.12-2.206-4.943-4.773-9.981-2.386a8.16 8.16 0 0 0-11.923-.895A8.168 8.168 0 0 0 16.012 1c-2.282-.003-8.96 1.28-8.194 9.545-3.935.594-6.817 4.082-6.817 8.182 0 3.028 1.363 5.67 4.09 7.086v13.369a4.09 4.09 0 1 0 8.182 0V25.545a6.819 6.819 0 0 1 6.818-6.818h21.818M39.182 55.545H11.909"/>
        <path d="M41.91 29.636v15h1.363l4.655-4.655c.512-.511.8-1.206.8-1.93V31c0-.753-.612-1.364-1.364-1.364h-5.455z"/>
    </g>
</svg>
