<?xml version="1.0" encoding="UTF-8"?>
<svg width="40px" height="40px" viewBox="0 0 40 40" version="1.1" xmlns="http://www.w3.org/2000/svg" xmlns:xlink="http://www.w3.org/1999/xlink">
    <!-- Generator: sketchtool 46.1 (44463) - http://www.bohemiancoding.com/sketch -->
    <title>FA443472-9510-431B-AC1A-B029CB5C246D</title>
    <desc>Created with sketchtool.</desc>
    <defs>
        <polygon id="path-1" points="9.11777778 9.44933333 9.11777778 18.8981111 0 18.8981111 0 9.44933333 0 0.000555555556 9.11777778 0.000555555556"></polygon>
    </defs>
    <g id="page" stroke="none" stroke-width="1" fill="none" fill-rule="evenodd">
        <g id="main-2" transform="translate(-1110.000000, -80.000000)">
            <g id="Group-15" transform="translate(1110.000000, 80.000000)">
                <path d="M20,1.53846154 C9.82,1.53846154 1.53846154,9.82 1.53846154,20 C1.53846154,30.18 9.82,38.4615385 20,38.4615385 C30.18,38.4615385 38.4615385,30.18 38.4615385,20 C38.4615385,9.82 30.18,1.53846154 20,1.53846154 M20,40 C8.97230769,40 0,31.0276923 0,20 C0,8.97230769 8.97230769,0 20,0 C31.0276923,0 40,8.97230769 40,20 C40,31.0276923 31.0276923,40 20,40" id="Fill-3" fill="#FFFFFF"></path>
                <g id="Page-1" transform="translate(14.666667, 10.666667)">
                    <mask id="mask-2" fill="white">
                        <use xlink:href="#path-1"></use>
                    </mask>
                    <g id="Clip-2"></g>
                    <path d="M1.33333333,6.24944444 L3.28666667,6.24944444 L3.28666667,4.35055556 C3.28666667,3.51388889 3.30777778,2.22277778 3.91555556,1.42277778 C4.55555556,0.576111111 5.43555556,0.000555555556 6.94888889,0.000555555556 C9.41333333,0.000555555556 10.4511111,0.351666667 10.4511111,0.351666667 L9.96333333,3.24611111 C9.96333333,3.24611111 9.14777778,3.01055556 8.38888889,3.01055556 C7.62888889,3.01055556 6.94888889,3.28277778 6.94888889,4.04277778 L6.94888889,6.24944444 L10.0644444,6.24944444 L9.84666667,9.07722222 L6.94888889,9.07722222 L6.94888889,18.8983333 L3.28666667,18.8983333 L3.28666667,9.07722222 L1.33333333,9.07722222 L1.33333333,6.24944444 Z" id="Fill-1" fill="#FEFEFE" mask="url(#mask-2)"></path>
                </g>
            </g>
        </g>
    </g>
</svg>