<svg xmlns="http://www.w3.org/2000/svg" width="40" height="40" viewBox="0 0 40 40">
    <g fill="none" fill-rule="evenodd">
        <path fill="#FF2731" d="M20 1.538C9.82 1.538 1.538 9.82 1.538 20S9.82 38.462 20 38.462 38.462 30.18 38.462 20 30.18 1.538 20 1.538M20 40C8.972 40 0 31.028 0 20S8.972 0 20 0s20 8.972 20 20-8.972 20-20 20"/>
        <path d="M24 20.5V30h-9V11h9z"/>
        <path fill="#FF2731" d="M16 17.283h1.928v-1.91c0-.84.02-2.139.62-2.943.633-.851 1.501-1.43 2.995-1.43 2.433 0 3.457.353 3.457.353l-.481 2.91s-.805-.237-1.555-.237c-.75 0-1.421.274-1.421 1.038v2.219h3.075l-.215 2.843h-2.86V30h-3.615v-9.874H16v-2.843z"/>
    </g>
</svg>
