<svg xmlns="http://www.w3.org/2000/svg" width="29" height="61" viewBox="0 0 29 61">
    <g fill="none" fill-rule="evenodd" stroke="#FF2731" stroke-linecap="round" stroke-width="2">
        <path d="M27.087 8.826v10.291c0 2.719-1.41 5.241-3.724 6.666L14.043 31M27.087 28.391V31c0 2.717-1.41 5.24-3.724 6.665l-9.32 5.218v-9.13M27.087 40.274v2.608c0 2.717-1.41 5.241-3.724 6.666l-9.32 5.217v-9.13"/>
        <path d="M1 8.826v10.291c0 2.719 1.41 5.241 3.724 6.666L14.044 31M1 28.391V31c0 2.717 1.41 5.24 3.724 6.665l9.32 5.218v-9.13M1 40.274v2.608c0 2.717 1.41 5.241 3.724 6.666l9.32 5.217v-9.13"/>
        <path d="M8.825 21.87c0 5.557 5.217 9.13 5.217 9.13s5.219-3.575 5.219-9.13c0-5.556-5.219-9.13-5.219-9.13s-5.217 3.574-5.217 9.13zM14.043 1v11.74M14.043 31v28.983M7.522 4.913v7.826M20.565 4.913v7.826"/>
    </g>
</svg>
