<svg xmlns="http://www.w3.org/2000/svg" width="40" height="40" viewBox="0 0 40 40">
    <g fill="none" fill-rule="evenodd">
        <path fill="#FF2731" d="M20 1.538C9.82 1.538 1.538 9.82 1.538 20S9.82 38.462 20 38.462 38.462 30.18 38.462 20 30.18 1.538 20 1.538M20 40C8.972 40 0 31.028 0 20S8.972 0 20 0s20 8.972 20 20-8.972 20-20 20"/>
        <path fill="#FF2731" d="M20.5 11c-2.58 0-2.904.01-3.917.057-1.011.046-1.702.207-2.306.442a4.657 4.657 0 0 0-1.682 1.095 4.657 4.657 0 0 0-1.096 1.683c-.235.604-.396 1.295-.442 2.306C11.011 17.596 11 17.92 11 20.5s.01 2.904.057 3.917c.046 1.011.207 1.702.442 2.306a4.657 4.657 0 0 0 1.096 1.683 4.657 4.657 0 0 0 1.682 1.095c.604.235 1.295.396 2.306.442 1.013.046 1.337.057 3.917.057s2.904-.01 3.917-.057c1.011-.046 1.702-.207 2.306-.442a4.657 4.657 0 0 0 1.682-1.095 4.657 4.657 0 0 0 1.096-1.683c.235-.604.396-1.295.442-2.306.046-1.013.057-1.337.057-3.917s-.01-2.904-.057-3.917c-.046-1.011-.207-1.702-.442-2.306a4.657 4.657 0 0 0-1.096-1.683 4.657 4.657 0 0 0-1.682-1.095c-.604-.235-1.295-.396-2.306-.442C23.404 11.011 23.08 11 20.5 11m0 1.712c2.537 0 2.837.01 3.839.055.926.042 1.43.197 1.764.327.443.173.76.378 1.092.71.333.333.538.65.71 1.093.13.335.286.838.328 1.764.046 1.002.055 1.302.055 3.839s-.01 2.837-.055 3.839c-.042.926-.197 1.43-.327 1.764-.173.443-.378.76-.71 1.092a2.944 2.944 0 0 1-1.093.71c-.335.13-.838.286-1.764.328-1.002.046-1.302.055-3.839.055s-2.837-.01-3.839-.055c-.926-.042-1.43-.197-1.764-.327a2.944 2.944 0 0 1-1.092-.71 2.943 2.943 0 0 1-.71-1.093c-.13-.335-.286-.838-.328-1.764-.046-1.002-.055-1.302-.055-3.839s.01-2.837.055-3.839c.042-.926.197-1.43.327-1.764.173-.443.378-.76.71-1.092a2.944 2.944 0 0 1 1.093-.71c.335-.13.838-.286 1.764-.328 1.002-.046 1.302-.055 3.839-.055"/>
        <path fill="#FF2731" d="M20 23.246a3.246 3.246 0 1 1 0-6.492 3.246 3.246 0 0 1 0 6.492M20 15a5 5 0 1 0 0 10 5 5 0 0 0 0-10M26 15a1 1 0 1 1-2 0 1 1 0 0 1 2 0"/>
    </g>
</svg>
