<?xml version="1.0" encoding="UTF-8"?>
<svg width="40px" height="40px" viewBox="0 0 40 40" version="1.1" xmlns="http://www.w3.org/2000/svg" xmlns:xlink="http://www.w3.org/1999/xlink">
    <!-- Generator: sketchtool 46.1 (44463) - http://www.bohemiancoding.com/sketch -->
    <title>4818C0CD-6889-4C2D-95C5-EC744E44FEEF</title>
    <desc>Created with sketchtool.</desc>
    <defs></defs>
    <g id="page" stroke="none" stroke-width="1" fill="none" fill-rule="evenodd">
        <g id="main-2" transform="translate(-1160.000000, -80.000000)">
            <g id="Group-14" transform="translate(1160.000000, 80.000000)">
                <g id="Group-11">
                    <path d="M20,1.53846154 C9.82,1.53846154 1.53846154,9.82 1.53846154,20 C1.53846154,30.18 9.82,38.4615385 20,38.4615385 C30.18,38.4615385 38.4615385,30.18 38.4615385,20 C38.4615385,9.82 30.18,1.53846154 20,1.53846154 M20,40 C8.97230769,40 0,31.0276923 0,20 C0,8.97230769 8.97230769,0 20,0 C31.0276923,0 40,8.97230769 40,20 C40,31.0276923 31.0276923,40 20,40" id="Fill-3" fill="#FFFFFF"></path>
                    <g id="Group-3" transform="translate(10.666667, 10.697753)"></g>
                    <path d="M19.9970556,10.7036304 C17.4630556,10.7036304 17.1453148,10.7143498 16.1501667,10.7596673 C15.1570185,10.8048739 14.4787963,10.9623023 13.8852778,11.1924752 C13.2717222,11.4304475 12.7513889,11.7488528 12.2326852,12.2665294 C11.7139815,12.7842429 11.3949444,13.3035459 11.1565,13.9158865 C10.9258333,14.5081927 10.7681296,15.1851089 10.7227963,16.1762535 C10.6773889,17.169468 10.6666481,17.4865795 10.6666481,20.0155617 C10.6666481,22.5445069 10.6773889,22.8616185 10.7227963,23.854833 C10.7681296,24.8459776 10.9258333,25.5228937 11.1565,26.1152 C11.3949444,26.7275406 11.7139815,27.2468436 12.2326852,27.7645571 C12.7513889,28.2822337 13.2717222,28.6006389 13.8852778,28.8386112 C14.4787963,29.0687842 15.1570185,29.2262125 16.1501667,29.2714191 C17.1453148,29.3167366 17.4630556,29.3274561 19.9970556,29.3274561 C22.5310556,29.3274561 22.8487963,29.3167366 23.8439444,29.2714191 C24.8370926,29.2262125 25.5153148,29.0687842 26.1088333,28.8386112 C26.7223889,28.6006389 27.2427222,28.2822337 27.7614259,27.7645571 C28.2801296,27.2468436 28.5991667,26.7275406 28.8376111,26.1152 C29.0682778,25.5228937 29.2259815,24.8459776 29.2713148,23.854833 C29.3167222,22.8616185 29.327463,22.5445069 29.327463,20.0155617 C29.327463,17.4865795 29.3167222,17.169468 29.2713148,16.1762535 C29.2259815,15.1851089 29.0682778,14.5081927 28.8376111,13.9158865 C28.5991667,13.3035459 28.2801296,12.7842429 27.7614259,12.2665294 C27.2427222,11.7488528 26.7223889,11.4304475 26.1088333,11.1924752 C25.5153148,10.9623023 24.8370926,10.8048739 23.8439444,10.7596673 C22.8487963,10.7143498 22.5310556,10.7036304 19.9970556,10.7036304 M19.9970556,12.3814495 C22.4883889,12.3814495 22.783463,12.3909492 23.7673148,12.4357492 C24.6770185,12.4771485 25.1710926,12.6288475 25.4998704,12.7563723 C25.9353519,12.9252964 26.2461667,13.1270812 26.5726852,13.4529531 C26.8991667,13.7787881 27.1013889,14.0889875 27.2706481,14.5236436 C27.3983889,14.8517703 27.5503889,15.344829 27.5919074,16.2527314 C27.6367963,17.234635 27.6462778,17.5291617 27.6462778,20.0155617 C27.6462778,22.5019248 27.6367963,22.7964515 27.5919074,23.7783551 C27.5503889,24.6862574 27.3983889,25.1793162 27.2706481,25.5074429 C27.1013889,25.942099 26.8991667,26.2522983 26.5726852,26.5781333 C26.2461667,26.9040053 25.9353519,27.1057901 25.4998704,27.2747142 C25.1710926,27.4022389 24.6770185,27.553938 23.7673148,27.5953373 C22.7836111,27.6401373 22.488537,27.649637 19.9970556,27.649637 C17.5055741,27.649637 17.2105,27.6401373 16.2267963,27.5953373 C15.3170926,27.553938 14.8230185,27.4022389 14.4942407,27.2747142 C14.0587593,27.1057901 13.7479444,26.9040053 13.4214259,26.5781333 C13.0949444,26.2522983 12.8927222,25.942099 12.723463,25.5074429 C12.5957222,25.1793162 12.4437222,24.6862574 12.4022037,23.7783551 C12.3573148,22.7964515 12.3478333,22.5019248 12.3478333,20.0155617 C12.3478333,17.5291617 12.3573148,17.234635 12.4022037,16.2527314 C12.4437222,15.344829 12.5957222,14.8517703 12.723463,14.5236436 C12.8927222,14.0889875 13.0949444,13.7787881 13.4214259,13.4529531 C13.7479444,13.1270812 14.0587593,12.9252964 14.4942407,12.7563723 C14.8230185,12.6288475 15.3170926,12.4771485 16.2267593,12.4357492 C17.2106481,12.3909492 17.5057222,12.3814495 19.9970556,12.3814495" id="Fill-1" fill="#FFFFFF"></path>
                    <path d="M19.9970556,23.1195105 C18.2793889,23.1195105 16.8869074,21.7298234 16.8869074,20.015558 C16.8869074,18.3012557 18.2793889,16.9115686 19.9970556,16.9115686 C21.7147222,16.9115686 23.1071667,18.3012557 23.1071667,20.015558 C23.1071667,21.7298234 21.7147222,23.1195105 19.9970556,23.1195105 M19.9970556,15.2337494 C17.3509074,15.2337494 15.2057593,17.3746128 15.2057593,20.015558 C15.2057593,22.6564663 17.3509074,24.7973296 19.9970556,24.7973296 C22.6432037,24.7973296 24.7883519,22.6564663 24.7883519,20.015558 C24.7883519,17.3746128 22.6432037,15.2337494 19.9970556,15.2337494" id="Fill-4" fill="#FFFFFF"></path>
                    <path d="M26.0972889,15.0448206 C26.0972889,15.6619665 25.5959926,16.1622331 24.9776593,16.1622331 C24.3592889,16.1622331 23.8579926,15.6619665 23.8579926,15.0448206 C23.8579926,14.4276747 24.3592889,13.9274081 24.9776593,13.9274081 C25.5959926,13.9274081 26.0972889,14.4276747 26.0972889,15.0448206" id="Fill-6" fill="#FFFFFF"></path>
                </g>
            </g>
        </g>
    </g>
</svg>