<svg xmlns="http://www.w3.org/2000/svg" width="90" height="16" viewBox="0 0 90 16">
    <defs>
        <linearGradient id="a" x1=".284%" x2="100.015%" y1="49.445%" y2="49.445%">
            <stop offset="0%" stop-color="#FFB9FF"/>
            <stop offset="20.43%" stop-color="#FF5FB7"/>
            <stop offset="36.1%" stop-color="#E4358D"/>
            <stop offset="57.82%" stop-color="#4F0E32"/>
            <stop offset="100%" stop-color="#151015"/>
        </linearGradient>
        <linearGradient id="b" x1=".332%" x2="100.066%" y1="49.462%" y2="49.462%">
            <stop offset="0%" stop-color="#FFB9FF"/>
            <stop offset="20.43%" stop-color="#FF5FB7"/>
            <stop offset="36.1%" stop-color="#E4358D"/>
            <stop offset="57.82%" stop-color="#4F0E32"/>
            <stop offset="100%" stop-color="#151015"/>
        </linearGradient>
        <linearGradient id="c" x1="-.123%" x2="100.111%" y1="49.917%" y2="49.917%">
            <stop offset="0%" stop-color="#FFB9FF"/>
            <stop offset="20.43%" stop-color="#FF5FB7"/>
            <stop offset="36.1%" stop-color="#E4358D"/>
            <stop offset="57.82%" stop-color="#4F0E32"/>
            <stop offset="100%" stop-color="#151015"/>
        </linearGradient>
        <linearGradient id="d" x1="-5.101%" x2="94.626%" y1="49.946%" y2="49.946%">
            <stop offset="0%" stop-color="#FFB9FF"/>
            <stop offset="20.43%" stop-color="#FF5FB7"/>
            <stop offset="36.1%" stop-color="#E4358D"/>
            <stop offset="57.82%" stop-color="#4F0E32"/>
            <stop offset="100%" stop-color="#151015"/>
        </linearGradient>
        <linearGradient id="e" x1=".848%" x2="100.568%" y1="50.438%" y2="50.438%">
            <stop offset="0%" stop-color="#FFB9FF"/>
            <stop offset="20.43%" stop-color="#FF5FB7"/>
            <stop offset="36.1%" stop-color="#E4358D"/>
            <stop offset="57.82%" stop-color="#4F0E32"/>
            <stop offset="100%" stop-color="#151015"/>
        </linearGradient>
        <linearGradient id="f" x1="-6.737%" x2="92.978%" y1="49.845%" y2="49.845%">
            <stop offset="0%" stop-color="#FFB9FF"/>
            <stop offset="20.43%" stop-color="#FF5FB7"/>
            <stop offset="36.1%" stop-color="#E4358D"/>
            <stop offset="57.82%" stop-color="#4F0E32"/>
            <stop offset="100%" stop-color="#151015"/>
        </linearGradient>
        <linearGradient id="g" x1="1.214%" x2="100.608%" y1="50.229%" y2="50.229%">
            <stop offset="0%" stop-color="#FFB9FF"/>
            <stop offset="20.43%" stop-color="#FF5FB7"/>
            <stop offset="36.1%" stop-color="#E4358D"/>
            <stop offset="57.82%" stop-color="#4F0E32"/>
            <stop offset="100%" stop-color="#151015"/>
        </linearGradient>
        <linearGradient id="h" x1="-8.17%" x2="91.676%" y1="50.234%" y2="50.234%">
            <stop offset="0%" stop-color="#FFB9FF"/>
            <stop offset="20.43%" stop-color="#FF5FB7"/>
            <stop offset="36.1%" stop-color="#E4358D"/>
            <stop offset="57.82%" stop-color="#4F0E32"/>
            <stop offset="100%" stop-color="#151015"/>
        </linearGradient>
        <linearGradient id="i" x1=".299%" x2="99.769%" y1="50.269%" y2="50.269%">
            <stop offset="0%" stop-color="#FFB9FF"/>
            <stop offset="20.43%" stop-color="#FF5FB7"/>
            <stop offset="36.1%" stop-color="#E4358D"/>
            <stop offset="57.82%" stop-color="#4F0E32"/>
            <stop offset="100%" stop-color="#151015"/>
        </linearGradient>
        <linearGradient id="j" x1="-.367%" x2="99.622%" y1="50.312%" y2="50.312%">
            <stop offset="0%" stop-color="#FFB9FF"/>
            <stop offset="20.43%" stop-color="#FF5FB7"/>
            <stop offset="36.1%" stop-color="#E4358D"/>
            <stop offset="57.82%" stop-color="#4F0E32"/>
            <stop offset="100%" stop-color="#151015"/>
        </linearGradient>
        <linearGradient id="k" x1="-.082%" x2="99.434%" y1="50.375%" y2="50.375%">
            <stop offset="0%" stop-color="#FFB9FF"/>
            <stop offset="20.43%" stop-color="#FF5FB7"/>
            <stop offset="36.1%" stop-color="#E4358D"/>
            <stop offset="57.82%" stop-color="#4F0E32"/>
            <stop offset="100%" stop-color="#151015"/>
        </linearGradient>
        <linearGradient id="l" x1=".305%" x2="100.54%" y1="50.473%" y2="50.473%">
            <stop offset="0%" stop-color="#FFB9FF"/>
            <stop offset="20.43%" stop-color="#FF5FB7"/>
            <stop offset="36.1%" stop-color="#E4358D"/>
            <stop offset="57.82%" stop-color="#4F0E32"/>
            <stop offset="100%" stop-color="#151015"/>
        </linearGradient>
        <linearGradient id="m" x1="-.443%" x2="100.202%" y1="50.03%" y2="50.03%">
            <stop offset="0%" stop-color="#FFB9FF"/>
            <stop offset="20.43%" stop-color="#FF5FB7"/>
            <stop offset="36.1%" stop-color="#E4358D"/>
            <stop offset="57.82%" stop-color="#4F0E32"/>
            <stop offset="100%" stop-color="#151015"/>
        </linearGradient>
        <linearGradient id="n" x1=".407%" x2="99.744%" y1="50.767%" y2="50.767%">
            <stop offset="0%" stop-color="#FFB9FF"/>
            <stop offset="20.43%" stop-color="#FF5FB7"/>
            <stop offset="36.1%" stop-color="#E4358D"/>
            <stop offset="57.82%" stop-color="#4F0E32"/>
            <stop offset="100%" stop-color="#151015"/>
        </linearGradient>
    </defs>
    <g fill="none" fill-rule="nonzero">
        <path fill="#000" d="M36.992 4.992l.384.32v5.312l-.384.128v1.472h2.56v-1.472l-.384-.128V5.312l.384-.32V3.584h-2.56zM33.472 4.16c-.704-.448-1.6-.576-2.112-.576H28.032v8.64h1.792V9.536h1.472a4.6 4.6 0 0 0 2.304-.64c.576-.384 1.216-1.088 1.216-2.304.064-1.28-.704-2.048-1.344-2.432zm-.96 3.52c-.384.256-.896.32-1.216.32h-1.472V5.12h1.472c.064 0 1.792.064 1.792 1.472.064.512-.128.896-.576 1.088zM69.056 5.12l-2.56 3.584-2.56-3.584V3.584h-1.792v8.64h1.792V7.808l2.496 3.52h.128l2.496-3.52v4.416h1.792v-8.64h-1.792zM74.88 3.584l.768 1.536-3.392 7.04h1.792l.896-1.792h3.264l.896 1.792h1.792l-4.16-8.64H74.88v.064zm.768 5.312l.896-1.856.896 1.856h-1.792zM87.936 3.584v4.928l-3.84-3.328v-1.6h-1.728v8.64h1.728V7.36l5.248 4.864h.32v-8.64zM60.224 3.584h-2.048l-3.328 3.392h-.384V3.584h-1.792v8.64h1.792V8.512h.256l3.456 3.712h2.176l-4.16-4.416zM48.128 8.512l-3.776-3.456V3.584H42.56v8.64h1.792V7.296l5.248 4.928h.32v-8.64h-1.792z"/>
        <path fill="#151015" d="M8.96 7.936L21.312.512V15.36z"/>
        <path fill="url(#a)" d="M.832 2.176c.32-.32 4.608 1.856 5.056 1.856.448 0 2.816 1.344 3.136 1.664.32.32 2.432 1.92 2.432 2.368 0 .96-4.608 4.032-5.568 4.032-.448 0-4.736 2.112-5.056 1.856-.32-.32-.512-5.376-.512-5.888 0-.512.192-5.632.512-5.888z"/>
        <path fill="url(#b)" d="M.512 1.216c.128-.128 5.504 2.88 5.76 2.88.256 0 3.008 1.664 3.2 1.792.128.128 2.816 1.92 2.816 2.176 0 .448-5.504 3.968-6.016 3.968-.256 0-5.568 3.008-5.76 2.88C.384 14.784.256 8.32.256 8.128c.064-.384.128-6.784.256-6.912z"/>
        <path fill="url(#c)" d="M13.12 8L6.656 4.096.256.256v15.488l6.4-3.904z"/>
        <path fill="url(#d)" d="M1.152 3.072c.448-.448 3.648.832 4.352.832.704 0 2.624 1.088 3.072 1.536.448.448 2.048 1.856 2.048 2.56 0 1.408-3.712 4.096-5.12 4.096-.704 0-3.904 1.28-4.352.832C.704 12.48.384 8.704.384 8c0-.704.32-4.416.768-4.928z"/>
        <path fill="url(#e)" d="M1.472 4.032c.64-.64 2.752-.192 3.648-.192.96 0 2.432.768 3.008 1.344.64.64 1.6 1.856 1.6 2.752 0 1.856-2.816 4.16-4.672 4.16-.896 0-3.008.384-3.648-.192-.64-.64-1.024-3.008-1.024-3.968.064-.896.448-3.264 1.088-3.904z"/>
        <path fill="url(#f)" d="M8.96 8a4.22 4.22 0 0 1-4.224 4.224A4.22 4.22 0 0 1 .512 8c0-1.152.448-2.24 1.216-3.008.768-.768 1.792-1.216 3.008-1.216 1.152 0 2.24.448 3.008 1.216C8.448 5.76 8.96 6.848 8.96 8z"/>
        <path fill="url(#g)" d="M4.992 3.84c.576 0 2.112 1.28 2.496 1.6.384.384 1.6 1.92 1.6 2.496 0 1.152-2.944 4.16-4.16 4.16-1.152 0-4.16-2.944-4.16-4.16 0-.576 1.28-2.112 1.6-2.496.512-.32 2.048-1.6 2.624-1.6z"/>
        <path fill="url(#h)" d="M5.248 12.032L1.216 8l4.032-4.096L9.344 8z"/>
        <path fill="url(#i)" d="M6.208 4.416L9.664 8l-3.456 3.52-1.856-1.344L2.368 8l1.984-2.176z"/>
        <path fill="url(#j)" d="M7.104 4.928L9.984 8l-2.88 3.008-1.856-.896L3.584 8l1.664-2.112z"/>
        <path fill="url(#k)" d="M8 5.44L10.304 8 8 10.496l-1.856-.448L4.736 8l1.408-2.112z"/>
        <path fill="url(#l)" d="M8.896 9.984L10.56 8 8.896 5.952H7.104L5.888 8l1.216 1.984z"/>
        <path fill="url(#m)" d="M11.2 7.936l-1.664-1.28-1.792-.192-.576 1.472.576 1.472 1.792-.192z"/>
        <path fill="url(#n)" d="M11.84 7.872l-1.728-.448-1.728-.512v1.92l1.728-.448z"/>
    </g>
</svg>
