<svg xmlns="http://www.w3.org/2000/svg" width="90" height="15" viewBox="0 0 90 15">
    <g fill="#717171" fill-rule="nonzero">
        <path d="M36.992 3.992l.384.32v5.312l-.384.128v1.472h2.56V9.752l-.384-.128V4.312l.384-.32V2.584h-2.56zM33.472 3.16c-.704-.448-1.6-.576-2.112-.576H28.032v8.64h1.792V8.536h1.472a4.6 4.6 0 0 0 2.304-.64c.576-.384 1.216-1.088 1.216-2.304.064-1.28-.704-2.048-1.344-2.432zm-.96 3.52c-.384.256-.896.32-1.216.32h-1.472V4.12h1.472c.064 0 1.792.064 1.792 1.472.064.512-.128.896-.576 1.088zM69.056 4.12l-2.56 3.584-2.56-3.584V2.584h-1.792v8.64h1.792V6.808l2.496 3.52h.128l2.496-3.52v4.416h1.792v-8.64h-1.792zM74.88 2.584l.768 1.536-3.392 7.04h1.792l.896-1.792h3.264l.896 1.792h1.792l-4.16-8.64H74.88v.064zm.768 5.312l.896-1.856.896 1.856h-1.792zM87.936 2.584v4.928l-3.84-3.328v-1.6h-1.728v8.64h1.728V6.36l5.248 4.864h.32v-8.64zM60.224 2.584h-2.048l-3.328 3.392h-.384V2.584h-1.792v8.64h1.792V7.512h.256l3.456 3.712h2.176l-4.16-4.416zM48.128 7.512l-3.776-3.456V2.584H42.56v8.64h1.792V6.296l5.248 4.928h.32v-8.64h-1.792zM9 7.424L21.352 0v14.848z"/>
        <path d="M12.352 7.424L0 0v14.848z"/>
    </g>
</svg>
