<?xml version="1.0" encoding="UTF-8"?>
<svg width="300px" height="118px" viewBox="0 0 300 118" version="1.1" xmlns="http://www.w3.org/2000/svg" xmlns:xlink="http://www.w3.org/1999/xlink">
    <!-- Generator: sketchtool 46.1 (44463) - http://www.bohemiancoding.com/sketch -->
    <title>E78A50B9-7993-487F-A549-127F1ED73FF8</title>
    <desc>Created with sketchtool.</desc>
    <defs></defs>
    <g id="page" stroke="none" stroke-width="1" fill="none" fill-rule="evenodd">
        <g id="main-2" transform="translate(-1140.000000, -299.000000)" fill-rule="nonzero" fill="#CFAA6B">
            <g id="Group-7-Copy" transform="translate(1140.000000, 299.000000)">
                <path d="M0.450911417,48.2887662 C0.360729133,48.2887662 0.27054685,48.2887662 0.27054685,48.1981681 C0.180364567,48.10757 0.180364567,47.9263739 0.27054685,47.8357759 L47.1653342,0.634186422 C47.2555165,0.543588362 47.435881,0.543588362 47.5260633,0.634186422 C47.6162456,0.724784483 47.6162456,0.905980603 47.5260633,0.996578664 L0.631275983,48.2887662 C0.5410937,48.2887662 0.450911417,48.2887662 0.450911417,48.2887662 Z" id="Shape"></path>
                <path d="M47.435881,48.2887662 C47.3456988,48.2887662 47.2555165,48.2887662 47.2555165,48.1981681 L0.27054685,1.08717672 C0.180364567,0.996578664 0.180364567,0.815382543 0.27054685,0.724784483 C0.360729133,0.634186422 0.5410937,0.634186422 0.631275983,0.724784483 L47.6162456,47.9263739 C47.7064279,48.016972 47.7064279,48.1981681 47.6162456,48.2887662 C47.5260633,48.2887662 47.435881,48.2887662 47.435881,48.2887662 Z" id="Shape"></path>
                <path d="M47.435881,57.6203664 C47.3456988,57.6203664 47.2555165,57.6203664 47.2555165,57.5297683 L0.27054685,10.3281789 C0.180364567,10.2375808 0.180364567,10.0563847 0.27054685,9.96578664 C0.360729133,9.87518858 0.5410937,9.87518858 0.631275983,9.96578664 L47.6162456,57.1673761 C47.7064279,57.2579741 47.7064279,57.4391703 47.6162456,57.5297683 C47.5260633,57.6203664 47.435881,57.6203664 47.435881,57.6203664 Z" id="Shape"></path>
                <path d="M0.450911417,57.6203664 C0.360729133,57.6203664 0.27054685,57.6203664 0.27054685,57.5297683 C0.180364567,57.4391703 0.180364567,57.2579741 0.27054685,57.1673761 L47.1653342,9.96578664 C47.2555165,9.87518858 47.435881,9.87518858 47.5260633,9.96578664 C47.6162456,10.0563847 47.6162456,10.2375808 47.5260633,10.3281789 L0.631275983,57.5297683 C0.5410937,57.6203664 0.450911417,57.6203664 0.450911417,57.6203664 Z" id="Shape"></path>
                <path d="M101.038695,48.194636 C100.948513,48.194636 100.858331,48.194636 100.858331,48.1042146 C100.768148,48.0137931 100.768148,47.8329502 100.858331,47.7425287 L147.8433,0.632950192 C147.933483,0.542528736 148.113847,0.542528736 148.204029,0.632950192 C148.294212,0.723371648 148.294212,0.904214559 148.204029,0.994636015 L101.21906,48.1042146 C101.128878,48.194636 101.038695,48.194636 101.038695,48.194636 Z" id="Shape"></path>
                <path d="M148.023665,48.194636 C147.933483,48.194636 147.8433,48.194636 147.8433,48.1042146 L100.858331,1.08505747 C100.768148,0.994636015 100.768148,0.813793103 100.858331,0.723371648 C100.948513,0.632950192 101.128878,0.632950192 101.21906,0.723371648 L148.204029,47.8329502 C148.294212,47.9233716 148.294212,48.1042146 148.204029,48.194636 C148.113847,48.194636 148.023665,48.194636 148.023665,48.194636 Z" id="Shape"></path>
                <path d="M148.023665,57.6210728 C147.933483,57.6210728 147.8433,57.6210728 147.8433,57.5306513 L100.858331,10.4210728 C100.768148,10.3306513 100.768148,10.1498084 100.858331,10.059387 C100.948513,9.96896552 101.128878,9.96896552 101.21906,10.059387 L148.204029,57.1689655 C148.294212,57.259387 148.294212,57.4402299 148.204029,57.5306513 C148.113847,57.6210728 148.023665,57.6210728 148.023665,57.6210728 Z" id="Shape"></path>
                <path d="M101.038695,57.6210728 C100.948513,57.6210728 100.858331,57.6210728 100.858331,57.5306513 C100.768148,57.4402299 100.768148,57.259387 100.858331,57.1689655 L147.753118,10.059387 C147.8433,9.96896552 148.023665,9.96896552 148.113847,10.059387 C148.204029,10.1498084 148.204029,10.3306513 148.113847,10.4210728 L101.128878,57.5306513 C101.128878,57.6210728 101.038695,57.6210728 101.038695,57.6210728 Z" id="Shape"></path>
                <path d="M202.622531,48.8275862 C202.531749,48.8275862 202.440968,48.8275862 202.440968,48.7368214 C202.350186,48.6460567 202.350186,48.4645271 202.440968,48.3737623 L249.738278,1.08531496 C249.82906,0.994550186 250.010623,0.994550186 250.101405,1.08531496 C250.192187,1.17607973 250.192187,1.35760928 250.101405,1.44837406 L202.804095,48.7368214 C202.713313,48.8275862 202.713313,48.8275862 202.622531,48.8275862 Z" id="Shape"></path>
                <path d="M249.919842,48.8275862 C249.82906,48.8275862 249.738278,48.8275862 249.738278,48.7366488 L202.440968,1.44919409 C202.350186,1.35825668 202.350186,1.17638185 202.440968,1.08544444 C202.531749,0.994507026 202.713313,0.994507026 202.804095,1.08544444 L250.101405,48.4638366 C250.192187,48.554774 250.192187,48.7366488 250.101405,48.8275862 C250.010623,48.8275862 250.010623,48.8275862 249.919842,48.8275862 Z" id="Shape"></path>
                <path d="M249.919842,57.9827586 C249.82906,57.9827586 249.738278,57.9827586 249.738278,57.8919938 L202.440968,10.6035465 C202.350186,10.5127817 202.350186,10.3312521 202.440968,10.2404874 C202.531749,10.1497226 202.713313,10.1497226 202.804095,10.2404874 L250.101405,57.5289347 C250.192187,57.6196995 250.192187,57.8012291 250.101405,57.8919938 C250.010623,57.9827586 250.010623,57.9827586 249.919842,57.9827586 Z" id="Shape"></path>
                <path d="M202.622531,57.9827586 C202.531749,57.9827586 202.440968,57.9827586 202.440968,57.8919938 C202.350186,57.8012291 202.350186,57.6196995 202.440968,57.5289347 L249.738278,10.2404874 C249.82906,10.1497226 250.010623,10.1497226 250.101405,10.2404874 C250.192187,10.3312521 250.192187,10.5127817 250.101405,10.6035465 L202.804095,57.8919938 C202.713313,57.9827586 202.713313,57.9827586 202.622531,57.9827586 Z" id="Shape"></path>
                <path d="M51.0056497,108.396606 C50.9152542,108.396606 50.8248588,108.396606 50.8248588,108.306008 C50.7344633,108.215409 50.7344633,108.034213 50.8248588,107.943615 L97.920904,60.7420259 C98.0112994,60.6514278 98.1920904,60.6514278 98.2824859,60.7420259 C98.3728814,60.8326239 98.3728814,61.01382 98.2824859,61.1044181 L51.1864407,108.306008 C51.0960452,108.396606 51.0056497,108.396606 51.0056497,108.396606 Z" id="Shape"></path>
                <path d="M98.0112994,108.396606 C97.920904,108.396606 97.8305085,108.396606 97.8305085,108.306008 L50.7344633,61.1044181 C50.6440678,61.01382 50.6440678,60.8326239 50.7344633,60.7420259 C50.8248588,60.6514278 51.0056497,60.6514278 51.0960452,60.7420259 L98.1920904,107.943615 C98.2824859,108.034213 98.2824859,108.215409 98.1920904,108.306008 C98.1920904,108.396606 98.1016949,108.396606 98.0112994,108.396606 Z" id="Shape"></path>
                <path d="M98.0112994,117.728206 C97.920904,117.728206 97.8305085,117.728206 97.8305085,117.637608 L50.7344633,70.4360183 C50.6440678,70.3454203 50.6440678,70.1642241 50.7344633,70.0736261 C50.8248588,69.983028 51.0056497,69.983028 51.0960452,70.0736261 L98.1920904,117.275216 C98.2824859,117.365814 98.2824859,117.54701 98.1920904,117.637608 C98.1920904,117.728206 98.1016949,117.728206 98.0112994,117.728206 Z" id="Shape"></path>
                <path d="M51.0056497,117.728206 C50.9152542,117.728206 50.8248588,117.728206 50.8248588,117.637608 C50.7344633,117.54701 50.7344633,117.365814 50.8248588,117.275216 L97.920904,70.0736261 C98.0112994,69.983028 98.1920904,69.983028 98.2824859,70.0736261 C98.3728814,70.1642241 98.3728814,70.3454203 98.2824859,70.4360183 L51.1864407,117.637608 C51.0960452,117.728206 51.0056497,117.728206 51.0056497,117.728206 Z" id="Shape"></path>
                <path d="M151.775074,108.844828 C151.684292,108.844828 151.59351,108.844828 151.59351,108.754063 C151.502728,108.663298 151.502728,108.481768 151.59351,108.391004 L198.89082,61.1025563 C198.981602,61.0117916 199.163166,61.0117916 199.253948,61.1025563 C199.344729,61.1933211 199.344729,61.3748507 199.253948,61.4656154 L151.956637,108.754063 C151.865855,108.844828 151.865855,108.844828 151.775074,108.844828 Z" id="Shape"></path>
                <path d="M199.072384,108.844828 C198.981602,108.844828 198.89082,108.844828 198.89082,108.754063 L151.59351,61.4656154 C151.502728,61.3748507 151.502728,61.1933211 151.59351,61.1025563 C151.684292,61.0117916 151.865855,61.0117916 151.956637,61.1025563 L199.253948,108.391004 C199.344729,108.481768 199.344729,108.663298 199.253948,108.754063 C199.163166,108.844828 199.072384,108.844828 199.072384,108.844828 Z" id="Shape"></path>
                <path d="M199.072384,118 C198.981602,118 198.89082,118 198.89082,117.909235 L151.59351,70.6207879 C151.502728,70.5300231 151.502728,70.3484935 151.59351,70.2577288 C151.684292,70.166964 151.865855,70.166964 151.956637,70.2577288 L199.253948,117.546176 C199.344729,117.636941 199.344729,117.81847 199.253948,117.909235 C199.163166,118 199.072384,118 199.072384,118 Z" id="Shape"></path>
                <path d="M151.775074,118 C151.684292,118 151.59351,118 151.59351,117.909235 C151.502728,117.81847 151.502728,117.636941 151.59351,117.546176 L198.89082,70.2577288 C198.981602,70.166964 199.163166,70.166964 199.253948,70.2577288 C199.344729,70.3484935 199.344729,70.5300231 199.253948,70.6207879 L151.956637,117.909235 C151.865855,118 151.865855,118 151.775074,118 Z" id="Shape"></path>
                <path d="M252.090395,108.396606 C252,108.396606 251.909605,108.396606 251.909605,108.306008 C251.819209,108.215409 251.819209,108.034213 251.909605,107.943615 L299.00565,60.7420259 C299.096045,60.6514278 299.276836,60.6514278 299.367232,60.7420259 C299.457627,60.8326239 299.457627,61.01382 299.367232,61.1044181 L252.271186,108.306008 C252.271186,108.396606 252.180791,108.396606 252.090395,108.396606 Z" id="Shape"></path>
                <path d="M299.186441,108.396606 C299.096045,108.396606 299.00565,108.396606 299.00565,108.306008 L251.909605,61.1044181 C251.819209,61.01382 251.819209,60.8326239 251.909605,60.7420259 C252,60.6514278 252.180791,60.6514278 252.271186,60.7420259 L299.367232,107.943615 C299.457627,108.034213 299.457627,108.215409 299.367232,108.306008 C299.367232,108.396606 299.276836,108.396606 299.186441,108.396606 Z" id="Shape"></path>
                <path d="M299.186441,117.728206 C299.096045,117.728206 299.00565,117.728206 299.00565,117.637608 L251.909605,70.4360183 C251.819209,70.3454203 251.819209,70.1642241 251.909605,70.0736261 C252,69.983028 252.180791,69.983028 252.271186,70.0736261 L299.367232,117.275216 C299.457627,117.365814 299.457627,117.54701 299.367232,117.637608 C299.367232,117.728206 299.276836,117.728206 299.186441,117.728206 Z" id="Shape"></path>
                <path d="M252.090395,117.728206 C252,117.728206 251.909605,117.728206 251.909605,117.637608 C251.819209,117.54701 251.819209,117.365814 251.909605,117.275216 L299.00565,70.0736261 C299.096045,69.983028 299.276836,69.983028 299.367232,70.0736261 C299.457627,70.1642241 299.457627,70.3454203 299.367232,70.4360183 L252.271186,117.637608 C252.271186,117.728206 252.180791,117.728206 252.090395,117.728206 Z" id="Shape"></path>
                <polygon id="Shape" points="77.5759514 29.4584799 77.1442277 30.2992611 78.4393988 33.1018649 77.8349856 33.5689655 75.9354013 30.4861013 74.0358171 33.5689655 73.4314039 33.1018649 74.726575 30.2992611 74.0358171 29.4584799 71.1864407 29.2716397 71.1864407 28.4308586 74.5538855 28.1505982 73.0860249 24.7874736 73.7767829 24.4137931 75.3309882 27.0295567 76.2807803 27.0295567 77.8349856 24.4137931 78.5257435 24.7874736 76.9715382 28.1505982 80.3389831 28.3374384 80.3389831 29.1782196"></polygon>
                <polygon id="Shape" points="177.156492 29.4584799 176.712194 30.2992611 178.045088 33.1018649 177.423071 33.5689655 175.468159 30.4861013 173.513247 33.5689655 172.891229 33.1018649 174.224124 30.2992611 173.779826 29.4584799 170.847458 29.2716397 170.847458 28.4308586 174.312983 28.1505982 172.535791 24.7874736 173.246668 24.4137931 174.846141 27.0295567 175.823597 27.0295567 177.423071 24.4137931 178.133948 24.7874736 176.534474 28.1505982 180 28.3374384 180 29.1782196"></polygon>
                <polygon id="Shape" points="277.714286 29.4584799 277.27845 30.2992611 278.585956 33.1018649 277.975787 33.5689655 276.058111 30.4861013 274.140436 33.5689655 273.530266 33.1018649 274.837772 30.2992611 274.401937 29.4584799 271.525424 29.2716397 271.525424 28.4308586 274.924939 28.1505982 273.355932 24.7874736 274.053269 24.4137931 275.622276 27.0295567 276.581114 27.0295567 278.150121 24.4137931 278.847458 24.7874736 277.27845 28.1505982 280.677966 28.3374384 280.677966 29.1782196"></polygon>
                <polygon id="Shape" points="226.866828 90.4929627 226.430993 91.3337438 227.738499 94.1363476 227.128329 94.6034483 225.210654 91.5205841 223.292978 94.6034483 222.682809 94.1363476 223.990315 91.3337438 223.554479 90.4929627 220.677966 90.3061224 220.677966 89.4653413 224.077482 89.1850809 222.508475 85.8219564 223.205811 85.4482759 224.774818 88.0640394 225.733656 88.0640394 227.302663 85.4482759 228 85.8219564 226.430993 89.1850809 229.830508 89.3719212 229.830508 90.2127023"></polygon>
                <polygon id="Shape" points="126.188862 90.4929627 125.753027 91.3337438 127.060533 94.1363476 126.450363 94.6034483 124.532688 91.5205841 122.615012 94.6034483 122.004843 94.1363476 123.312349 91.3337438 122.876513 90.4929627 120 90.3061224 120 89.4653413 123.399516 89.1850809 121.830508 85.8219564 122.527845 85.4482759 124.096852 88.0640394 125.05569 88.0640394 126.624697 85.4482759 127.322034 85.8219564 125.753027 89.1850809 129.152542 89.3719212 129.152542 90.2127023"></polygon>
                <polygon id="Shape" points="24.6141188 90.4505866 24.1698206 91.3000355 25.5027152 94.1315322 24.8806977 94.6034483 22.9257857 91.488802 20.9708738 94.6034483 20.3488563 94.1315322 21.6817509 91.3000355 21.2374527 90.4505866 18.3050847 90.2618201 18.3050847 89.4123711 21.7706105 89.1292215 19.9934178 85.8258087 20.7042949 85.4482759 22.3037683 88.091006 23.2812243 88.091006 24.8806977 85.4482759 25.5915748 85.8258087 23.9921014 89.2236047 27.4576271 89.4123711 27.4576271 90.2618201"></polygon>
            </g>
        </g>
    </g>
</svg>