<svg xmlns="http://www.w3.org/2000/svg" width="40" height="40" viewBox="0 0 40 40">
    <g fill="#FF2731" fill-rule="evenodd">
        <path d="M20 1.538C9.82 1.538 1.538 9.82 1.538 20S9.82 38.462 20 38.462 38.462 30.18 38.462 20 30.18 1.538 20 1.538M20 40C8.972 40 0 31.028 0 20S8.972 0 20 0s20 8.972 20 20-8.972 20-20 20"/>
        <path d="M18.296 25.954h1.136s.343-.039.518-.23c.161-.176.156-.507.156-.507s-.022-1.546.685-1.773c.697-.225 1.593 1.494 2.541 2.155.719.5 1.263.39 1.263.39l2.538-.035s1.327-.083.698-1.143c-.052-.086-.367-.783-1.887-2.215-1.591-1.498-1.378-1.256.539-3.848 1.166-1.579 1.634-2.543 1.487-2.955-.139-.394-.997-.29-.997-.29l-2.857.019s-.211-.03-.368.065c-.154.094-.252.312-.252.312s-.453 1.22-1.056 2.26c-1.272 2.192-1.78 2.308-1.989 2.171-.483-.316-.362-1.274-.362-1.953 0-2.125.316-3.01-.619-3.24-.31-.077-.539-.127-1.333-.135-1.02-.01-1.883.004-2.37.246-.326.162-.576.521-.424.542.189.026.616.118.843.43.293.405.283 1.312.283 1.312s.168 2.5-.393 2.812c-.385.213-.914-.222-2.047-2.211-.582-1.019-1.02-2.145-1.02-2.145s-.085-.21-.236-.323c-.183-.136-.438-.18-.438-.18l-2.716.019s-.407.01-.557.19c-.133.161-.01.492-.01.492s2.125 5.046 4.532 7.588c2.207 2.332 4.712 2.18 4.712 2.18"/>
    </g>
</svg>
