<?xml version="1.0" encoding="UTF-8"?>
<svg width="40px" height="40px" viewBox="0 0 40 40" version="1.1" xmlns="http://www.w3.org/2000/svg" xmlns:xlink="http://www.w3.org/1999/xlink">
    <!-- Generator: sketchtool 46.1 (44463) - http://www.bohemiancoding.com/sketch -->
    <title>8D7A56C7-E941-4C6B-9080-5D6CC8594E01</title>
    <desc>Created with sketchtool.</desc>
    <defs></defs>
    <g id="page" stroke="none" stroke-width="1" fill="none" fill-rule="evenodd">
        <g id="main-2" transform="translate(-1060.000000, -80.000000)" fill="#FFFFFF">
            <g id="Group-16" transform="translate(1060.000000, 80.000000)">
                <path d="M20,1.53846154 C9.82,1.53846154 1.53846154,9.82 1.53846154,20 C1.53846154,30.18 9.82,38.4615385 20,38.4615385 C30.18,38.4615385 38.4615385,30.18 38.4615385,20 C38.4615385,9.82 30.18,1.53846154 20,1.53846154 M20,40 C8.97230769,40 0,31.0276923 0,20 C0,8.97230769 8.97230769,0 20,0 C31.0276923,0 40,8.97230769 40,20 C40,31.0276923 31.0276923,40 20,40" id="Fill-3"></path>
                <path d="M18.466464,25.2882621 L19.5827227,25.2882621 C19.5827227,25.2882621 19.9192742,25.2511991 20.0910741,25.0650021 C20.2496586,24.8946892 20.2443724,24.5743598 20.2443724,24.5743598 C20.2443724,24.5743598 20.2232278,23.0750767 20.9174755,22.8544641 C21.6020319,22.6364989 22.4821759,24.3034475 23.4143003,24.9441064 C24.1200013,25.4294541 24.6547835,25.3235601 24.6547835,25.3235601 L27.1480842,25.2882621 C27.1480842,25.2882621 28.4520012,25.2079591 27.8335216,24.1807869 C27.7833032,24.0969542 27.4731824,23.4209972 25.9798451,22.0329029 C24.4169067,20.5795073 24.6265907,20.8142391 26.5093411,18.3010206 C27.6555546,16.7699693 28.1145686,15.8354545 27.9709615,15.4357045 C27.8344026,15.0536035 26.9912617,15.1550853 26.9912617,15.1550853 L24.1843161,15.1727343 C24.1843161,15.1727343 23.9763942,15.1436135 23.8222149,15.2362707 C23.6715596,15.3271631 23.5746469,15.5380687 23.5746469,15.5380687 C23.5746469,15.5380687 23.1297292,16.722317 22.5376805,17.7300753 C21.287506,19.855898 20.7879648,19.9679692 20.583567,19.8356017 C20.1086946,19.528509 20.227633,18.6001713 20.227633,17.9409809 C20.227633,15.8804595 20.5386348,15.0218353 19.6197257,14.7994578 C19.3148911,14.725332 19.0902297,14.6767972 18.3096416,14.6688552 C17.3079162,14.6591482 16.4603701,14.672385 15.9810925,14.9071168 C15.6612805,15.0641929 15.4154745,15.4127608 15.5652487,15.4330572 C15.750264,15.4577658 16.1705129,15.5468932 16.3934122,15.8504561 C16.6815074,16.2422641 16.6709351,17.122067 16.6709351,17.122067 C16.6709351,17.122067 16.8365678,19.5470404 16.2850462,19.8488384 C15.9070864,20.0553318 15.3872817,19.6335206 14.2736661,17.7044842 C13.7027619,16.7170223 13.2719407,15.6245489 13.2719407,15.6245489 C13.2719407,15.6245489 13.1882433,15.4207028 13.0402311,15.311279 C12.8605021,15.1797939 12.6094099,15.1374363 12.6094099,15.1374363 L9.94166628,15.1550853 C9.94166628,15.1550853 9.54168094,15.1656747 9.39454977,15.3403999 C9.26327705,15.4957111 9.38397747,15.816923 9.38397747,15.816923 C9.38397747,15.816923 11.4720067,20.7101099 13.8366777,23.1747936 C16.0048802,25.4365137 18.466464,25.2882621 18.466464,25.2882621" id="Fill-1"></path>
            </g>
        </g>
    </g>
</svg>